<?xml version="1.0" encoding="UTF-8" standalone="no"?>
<svg
   xmlns:dc="http://purl.org/dc/elements/1.1/"
   xmlns:cc="http://creativecommons.org/ns#"
   xmlns:rdf="http://www.w3.org/1999/02/22-rdf-syntax-ns#"
   xmlns:svg="http://www.w3.org/2000/svg"
   xmlns="http://www.w3.org/2000/svg"
   xmlns:xlink="http://www.w3.org/1999/xlink"
   width="1400"
   height="350"
   viewBox="0 0 370.41666 92.604169"
   version="1.1"
   id="svg8">
  <defs
     id="defs2" />
  <metadata
     id="metadata5">
    <rdf:RDF>
      <cc:Work
         rdf:about="">
        <dc:format>image/svg+xml</dc:format>
        <dc:type
           rdf:resource="http://purl.org/dc/dcmitype/StillImage" />
        <dc:title></dc:title>
      </cc:Work>
    </rdf:RDF>
  </metadata>
  <g
     id="layer1"
     transform="translate(0,-204.39582)">
    <g
       aria-label="CalCool Studios"
       style="font-style:normal;font-variant:normal;font-weight:bold;font-stretch:normal;font-size:27.47345543px;line-height:0%;font-family:Verdana;-inkscape-font-specification:'Verdana, Bold';text-align:center;letter-spacing:16.16438103px;word-spacing:0px;writing-mode:lr-tb;text-anchor:middle;fill:#000000;fill-opacity:1;stroke:none;stroke-width:0.98990113px;stroke-linecap:butt;stroke-linejoin:miter;stroke-opacity:1"
       id="text817"
       transform="matrix(2.0184534,0,-0.81045255,2.0184534,9.8223783,200.57109)">
      <path
         style="font-style:normal;font-variant:normal;font-weight:normal;font-stretch:condensed;font-size:27.47478867px;font-family:Impact;-inkscape-font-specification:'Impact, Condensed';font-variant-ligatures:normal;font-variant-caps:normal;font-variant-numeric:normal;font-feature-settings:normal;text-align:center;letter-spacing:0px;writing-mode:lr-tb;text-anchor:middle;stroke-width:3.74135876px"
         d="m 67.716797,27.550781 c -4.630962,0 -9.056357,0.796042 -13.277344,2.384766 -4.173612,1.554921 -7.825594,3.701439 -10.953125,6.439453 -3.093727,2.738013 -5.439051,5.593725 -7.039062,8.568359 -1.586438,2.940828 -3.568173,7.369692 -5.94336,13.285157 l -4.28125,10.662109 h 21.345703 l 7.009766,-17.457031 c 1.669416,-4.157725 2.99333,-6.862583 3.96875,-8.113282 0.97542,-1.250698 2.341872,-1.875 4.099609,-1.875 1.554923,10e-7 2.340689,0.522431 2.359375,1.570313 0.06606,1.01408 -0.73488,3.600088 -2.404297,7.757813 l -5.742187,14.298828 h 21.347656 l 3.134766,-7.808594 c 3.080956,-7.673202 4.705291,-13.316712 4.873047,-16.933594 0.181326,-3.650685 -1.285538,-6.693163 -4.398438,-9.126953 -3.1129,-2.43379 -7.812317,-3.652344 -14.099609,-3.652344 z m 138.269533,0 c -4.63096,0 -9.05636,0.796042 -13.27735,2.384766 -4.17361,1.554921 -7.82364,3.701439 -10.95117,6.439453 -3.09372,2.738013 -5.441,5.593725 -7.04101,8.568359 -1.58644,2.940828 -3.56818,7.369692 -5.94336,13.285157 l -4.28125,10.662109 h 21.3457 l 7.00977,-17.457031 c 1.66941,-4.157725 2.99333,-6.862583 3.96875,-8.113282 0.97541,-1.250698 2.34187,-1.875 4.09961,-1.875 1.55492,10e-7 2.34068,0.522431 2.35937,1.570313 0.0661,1.01408 -0.73488,3.600088 -2.4043,7.757813 l -5.74218,14.298828 h 21.34765 l 3.13477,-7.808594 c 3.08095,-7.673202 4.70529,-13.316712 4.87305,-16.933594 0.18132,-3.650685 -1.28359,-6.693163 -4.39649,-9.126953 -3.1129,-2.43379 -7.81427,-3.652344 -14.10156,-3.652344 z m 207.53125,0 c -5.07039,0 -9.72842,0.829999 -13.97656,2.486328 -4.23455,1.622527 -7.74734,3.885942 -10.53711,6.792969 -2.75596,2.907027 -5.39544,7.503724 -7.91993,13.791016 -1.75085,4.360541 -2.6335,7.944381 -2.64453,10.75 0.0228,2.805619 0.57804,5.003072 1.66407,6.591797 0.18345,0.268373 0.46489,0.604381 0.72851,0.927734 h 34.28711 c -2.06046,-2.856032 -5.46278,-6.150339 -10.26953,-9.902344 -2.52545,-1.960554 -3.8642,-3.633624 -4.01758,-5.019531 -0.18719,-1.385907 0.26977,-3.447531 1.36914,-6.185547 0.85507,-2.129565 1.81396,-3.719694 2.87695,-4.767578 1.09681,-1.047882 2.28776,-1.570313 3.57227,-1.570313 1.18309,10e-7 1.87154,0.388555 2.06641,1.166016 0.19487,0.777462 -0.27788,2.586361 -1.41797,5.425781 l -2.44336,6.083985 h 19.82617 L 427.98438,50.875 c 2.61949,-6.523911 3.82957,-11.137586 3.63085,-13.841797 -0.15132,-2.738014 -1.82753,-5.003382 -5.02929,-6.794922 -3.16795,-1.79154 -7.52473,-2.6875 -13.06836,-2.6875 z m -261.56446,1.72461 -15.90624,39.615234 h 21.09374 l 15.90626,-39.615234 z m 192.11719,0 -15.90625,39.615234 h 21.09375 l 15.90625,-39.615234 z m 212.45117,0 -7.65625,19.064453 c -0.991,-1.825343 -2.36772,-3.194752 -4.13085,-4.107422 -1.7293,-0.912673 -3.86128,-1.367188 -6.39649,-1.367188 -3.27887,0 -6.43361,0.828045 -9.46484,2.484375 -3.01767,1.622526 -5.29908,3.514366 -6.84375,5.677735 -1.51091,2.163371 -3.30427,5.832101 -5.38086,11.003906 l -2.75391,6.859375 h 20.48242 l 3.16211,-7.875 c 1.05866,-2.636606 1.9403,-4.326655 2.64453,-5.070313 0.7516,-0.777461 1.73622,-1.166015 2.95313,-1.166015 1.25069,0 1.9083,0.422513 1.97461,1.267578 0.10012,0.845067 -0.34515,2.501157 -1.33594,4.96875 l -3.16211,7.875 h 20.48633 l 15.90625,-39.615234 z m 27.83594,0 -4.29492,10.699218 h 21.0918 l 4.29492,-10.699218 z m -141.11719,5.832031 -4.25585,10.595703 h -4.41211 l -4.27539,10.648437 h 4.4121 l -5.03515,12.539063 h 20.53515 l 5.03516,-12.539063 h 5.52734 l 4.2754,-10.648437 h -5.52735 l 4.25391,-10.595703 z m -326.86132,7.757812 c -5.78025,0 -10.91292,1.080772 -15.39844,3.244141 -4.485522,2.163369 -7.906689,4.664483 -10.263673,7.503906 -2.30961,2.805619 -4.509445,6.81197 -6.599609,12.017578 l -1.308594,3.259766 h 19.214846 l 2.32812,-5.794922 c 1.50655,-3.752093 2.60597,-6.068397 3.29688,-6.947265 0.70448,-0.912671 1.74885,-1.369141 3.13476,-1.369141 1.2169,0 1.86283,0.541364 1.93555,1.623047 0.12009,1.047884 -0.52596,3.330228 -1.9375,6.845703 -1.12652,2.805619 -2.10952,4.663502 -2.94922,5.576172 -0.0181,0.01965 -0.0607,0.04596 -0.082,0.06641 h 21.14844 c 2.37873,-6.290704 3.87144,-10.790334 4.37695,-13.298828 0.72883,-3.58308 -0.17659,-6.591599 -2.71484,-9.025391 -2.52469,-2.467593 -7.2521,-3.701172 -14.18164,-3.701172 z m 138.26953,0 c -5.47603,0 -10.39899,1.063793 -14.76953,3.19336 -4.37055,2.129567 -7.93753,4.951322 -10.70118,8.466797 -2.71991,3.459853 -5.31785,8.253322 -7.79296,14.365234 h 20.48242 l 2.50976,-6.251953 c 1.3844,-3.447872 2.45633,-5.611366 3.21485,-6.490234 0.77209,-0.912671 1.76552,-1.369141 2.98242,-1.369141 1.21689,0 1.82861,0.45647 1.83398,1.369141 0.019,0.878868 -0.66443,3.042362 -2.04882,6.490234 l -2.50977,6.251953 h 20.48437 l 0.47461,-1.181641 c 1.91373,-4.766173 3.00128,-8.316055 3.26172,-10.648437 0.29425,-2.332382 -0.0145,-4.595796 -0.92383,-6.792969 -0.90933,-2.19717 -2.74782,-3.972113 -5.51757,-5.324219 -2.72239,-1.38591 -6.38331,-2.078125 -10.98047,-2.078125 z m 53.08789,0 c -5.47603,0 -10.39899,1.063793 -14.76953,3.19336 -4.37054,2.129567 -7.93753,4.951322 -10.70118,8.466797 -2.71991,3.459853 -5.31785,8.253322 -7.79296,14.365234 h 20.48242 l 2.50976,-6.251953 c 1.3844,-3.447872 2.45438,-5.611366 3.21289,-6.490234 0.77209,-0.912671 1.76748,-1.369141 2.98438,-1.369141 1.21689,0 1.82861,0.45647 1.83398,1.369141 0.019,0.878868 -0.66443,3.042362 -2.04882,6.490234 l -2.50977,6.251953 h 20.48438 l 0.4746,-1.181641 c 1.91373,-4.766173 2.99932,-8.316055 3.25977,-10.648437 0.29425,-2.332382 -0.0125,-4.595796 -0.92187,-6.792969 -0.90933,-2.19717 -2.74978,-3.972113 -5.51954,-5.324219 -2.72238,-1.38591 -6.38135,-2.078125 -10.97851,-2.078125 z m 321.81836,0 c -5.47603,0 -10.399,1.063793 -14.76953,3.19336 -4.37056,2.129567 -7.93752,4.951322 -10.70118,8.466797 -2.7199,3.459853 -5.31785,8.253322 -7.79296,14.365234 h 20.48046 l 2.50977,-6.251953 c 1.38439,-3.447872 2.45634,-5.611366 3.21484,-6.490234 0.7721,-0.912671 1.7675,-1.369141 2.98438,-1.369141 1.21691,0 1.82666,0.45647 1.83203,1.369141 0.019,0.878868 -0.66248,3.042362 -2.04688,6.490234 l -2.50976,6.251953 h 20.48242 l 0.47461,-1.181641 c 1.91372,-4.766173 3.00127,-8.316055 3.26172,-10.648437 0.29426,-2.332382 -0.0125,-4.595796 -0.92188,-6.792969 -0.90933,-2.19717 -2.74977,-3.972113 -5.51953,-5.324219 -2.72237,-1.38591 -6.38135,-2.078125 -10.97851,-2.078125 z m 50.55078,0 c -4.49575,0 -8.72867,0.692215 -12.69922,2.078125 -3.93673,1.385908 -7.13081,3.362641 -9.58203,5.931641 -2.43765,2.535199 -4.73455,6.490615 -6.89258,11.865234 -0.89434,2.227372 -1.48222,4.27403 -1.7793,6.150391 h 23.70313 c -0.93762,-0.708647 -1.66893,-1.334107 -2.10547,-1.839844 -0.95825,-1.149291 -1.40002,-2.198057 -1.32422,-3.144531 0.12319,-0.980276 0.59981,-2.500538 1.42774,-4.5625 0.61076,-1.521119 1.35137,-2.65478 2.2246,-3.398438 0.88681,-0.777461 1.90539,-1.166015 3.05469,-1.166015 1.41972,0 2.1302,0.422513 2.12891,1.267578 0.0461,0.811266 -0.55602,2.772969 -1.80469,5.882813 l -1.4668,3.65039 h 18.15235 l 1.56836,-3.904297 c 1.35725,-3.380266 2.16947,-5.8644 2.43554,-7.453125 0.2999,-1.588724 -0.0231,-3.31273 -0.96679,-5.171875 -0.90986,-1.859144 -2.71246,-3.347403 -5.40821,-4.46289 -2.64838,-1.149292 -6.20405,-1.722657 -10.66601,-1.722657 z m -210.19922,1.216797 -9.96094,24.808594 h 20.48438 l 9.96093,-24.808594 z m 26.7207,0 -9.96093,24.808594 h 20.48437 l 9.96094,-24.808594 z m 81.78516,0 -9.96094,24.808594 h 21.09375 l 9.96094,-24.808594 z m -553.679688,28.521485 -1.25,3.113281 h 21.345703 l 1.25,-3.113281 z m 74.574219,0 c -1.341391,0.482683 -2.756689,0.984295 -4.41211,1.544922 -1.606303,0.53815 -3.070913,1.059957 -4.435547,1.568359 h 35.783206 c 0.43188,-1.086709 0.82978,-2.105335 1.22265,-3.113281 z m 35.249999,0 -1.25,3.113281 h 21.09375 l 1.25,-3.113281 z m 28.44531,0 -1.25,3.113281 h 21.34571 l 1.25,-3.113281 z m 56.88867,0 -1.25,3.113281 H 239.125 l 1.25,-3.113281 z m 26.46876,0 -1.25,3.113281 h 20.48437 l 1.25,-3.113281 z m 26.61914,0 -1.25,3.113281 h 20.48437 l 1.25,-3.113281 z m 26.46875,0 -1.25,3.113281 h 20.48437 l 1.25,-3.113281 z m 27.22656,0 -1.25,3.113281 h 21.09375 l 1.25,-3.113281 z m 57.67383,0 c 0.95225,0.920464 1.9942,1.901715 3.22851,3.015625 0.0392,0.03495 0.0666,0.06291 0.10547,0.09766 h 29.89648 c -0.0101,-1.05902 -0.12517,-2.008609 -0.35742,-2.835938 -0.0255,-0.091 -0.0623,-0.185061 -0.0918,-0.277343 z m 43.83593,0 -1.25,3.113281 h 20.53516 l 1.25,-3.113281 z m 30.27149,0 -1.25,3.113281 h 20.48242 l 1.25,-3.113281 z m 26.7207,0 -1.25,3.113281 h 20.48438 l 1.25,-3.113281 z m 27.22852,0 -1.25,3.113281 h 20.48242 l 1.25,-3.113281 z m 26.71875,0 -1.25,3.113281 h 20.48633 l 1.25,-3.113281 z m 27.83789,0 -1.25,3.113281 h 21.09375 l 1.25,-3.113281 z m 27.83594,0 -1.25,3.113281 h 20.48437 l 1.25,-3.113281 z m 26.46679,0 -1.25,3.113281 h 20.48438 l 1.25,-3.113281 z m 27.69922,0 c 0.0847,0.995023 0.46835,2.033566 1.13867,3.113281 h 32.54883 c -1.13396,-1.015226 -2.53683,-2.052384 -4.20508,-3.113281 z M 21.992188,79.429688 20.875,82.210938 c -0.0991,0.246812 -0.18491,0.47377 -0.28125,0.716796 h 21.339844 l 1.404297,-3.498046 z m 29.103515,0 -1.404297,3.498046 h 21.333985 c 0.168196,-0.411341 0.333803,-0.800964 0.503906,-1.224609 l 0.912109,-2.273437 z m 31.089844,0 c -0.641632,0.379543 -1.216678,0.751067 -1.669922,1.107421 -0.77766,0.61142 -1.537176,1.418906 -2.28125,2.390625 h 20.535156 c 1.381579,-1.055762 3.189399,-2.220918 5.439449,-3.498046 z m 22.097653,0 -1.40429,3.498046 h 20.48437 l 1.4043,-3.498046 z m 27.53125,0 -1.40429,3.498046 h 21.09375 l 1.40429,-3.498046 z m 28.44727,0 -1.11719,2.78125 c -0.0991,0.246812 -0.18491,0.47377 -0.28125,0.716796 h 21.33984 l 1.4043,-3.498046 z m 29.10351,0 -1.40429,3.498046 h 21.33398 c 0.1682,-0.411341 0.33381,-0.800964 0.50391,-1.224609 l 0.91211,-2.273437 z m 27.78516,0 -1.4043,3.498046 h 20.48438 l 1.4043,-3.498046 z m 26.4668,0 -1.4043,3.498046 h 20.48438 l 1.40429,-3.498046 z m 26.62109,0 -1.4043,3.498046 h 20.48438 l 1.4043,-3.498046 z m 26.4668,0 -1.4043,3.498046 h 20.48438 l 1.40429,-3.498046 z m 27.22851,0 -1.40429,3.498046 h 21.09179 l 1.4043,-3.498046 z m 67.66016,0 c 1.42556,1.457865 2.42455,2.645632 2.89258,3.498046 h 21.95898 c 0.33968,-1.246323 0.60391,-2.412887 0.78907,-3.498046 z m 33.84766,0 -1.4043,3.498046 h 20.53516 l 1.40625,-3.498046 z m 30.27148,0 -1.4043,3.498046 h 20.48438 l 1.4043,-3.498046 z m 26.7207,0 -1.40429,3.498046 h 20.48437 l 1.4043,-3.498046 z m 27.22852,0 -1.4043,3.498046 h 20.48438 l 1.40429,-3.498046 z m 26.7207,0 -1.40429,3.498046 h 20.48437 l 1.4043,-3.498046 z m 27.83594,0 -1.4043,3.498046 h 21.09375 l 1.4043,-3.498046 z m 27.83789,0 -1.4043,3.498046 h 20.48243 l 1.40429,-3.498046 z m 26.4668,0 -1.4043,3.498046 h 20.48438 l 1.40429,-3.498046 z m 34.85156,0 c 0.84888,0.757824 1.80895,1.53103 2.90234,2.324218 0.60623,0.434545 1.06383,0.776996 1.60938,1.173828 h 28.48633 c 0.004,-0.982029 -0.10298,-1.872915 -0.35157,-2.644531 -0.091,-0.282327 -0.2148,-0.567105 -0.35351,-0.853515 z m -284.21484,2.527343 -0.39063,0.970703 h 19.82617 l 0.39063,-0.970703 z M 19.177734,86.640625 c -0.395844,1.080566 -0.7628,2.121704 -1.09375,3.113281 h 21.111328 c 0.02758,-0.06906 0.04615,-0.121496 0.07422,-0.191406 l 1.173828,-2.921875 z m 29.021485,0 -0.867188,2.162109 c -0.140074,0.34886 -0.261284,0.622056 -0.396484,0.951172 h 21.128906 c 0.457024,-0.982241 0.923226,-2.026262 1.396485,-3.113281 z m 27.71875,0 c -0.496348,0.949285 -0.984986,1.987099 -1.464844,3.113281 h 19.279297 c 0.546614,-1.179613 1.087518,-2.227465 1.621094,-3.113281 z m 25.470701,0 -1.25,3.113281 h 20.48438 l 1.25,-3.113281 z m 27.53125,0 -1.25,3.113281 h 21.09375 l 1.25,-3.113281 z m 28.52735,0 c -0.39585,1.080566 -0.7628,2.121704 -1.09375,3.113281 h 21.11132 c 0.0276,-0.06906 0.0461,-0.121496 0.0742,-0.191406 l 1.17383,-2.921875 z m 29.02148,0 -0.86719,2.162109 c -0.14007,0.34886 -0.26128,0.622056 -0.39648,0.951172 h 21.1289 c 0.45703,-0.982241 0.92323,-2.026262 1.39649,-3.113281 z m 27.79102,0 c -0.43944,1.099346 -0.82856,2.120537 -1.19727,3.113281 h 20.42578 l 1.25,-3.113281 z m 26.46289,0 -1.25,3.113281 h 20.36523 c 0.43203,-0.974258 0.87758,-2.014852 1.33594,-3.113281 z m 26.625,0 c -0.43937,1.099169 -0.82861,2.12068 -1.19727,3.113281 h 20.42578 l 1.25,-3.113281 z m 26.46289,0 -1.25,3.113281 h 20.36523 c 0.43203,-0.974258 0.87758,-2.014852 1.33594,-3.113281 z m 27.22851,0 -1.25,3.113281 h 21.0918 l 1.25,-3.113281 z m 46.24024,0 -0.27735,0.691406 c -0.33529,0.835064 -0.64209,1.638504 -0.93359,2.421875 h 19.78711 l 1.25,-3.113281 z m 27.35547,0 c -0.17833,0.900158 -0.47074,1.94628 -0.86133,3.113281 h 20.36133 c 0.42505,-1.080863 0.80817,-2.114738 1.15429,-3.113281 z m 27.91211,0 -1.25,3.113281 h 20.53515 l 1.25,-3.113281 z m 30.27148,0 -1.13281,2.820313 c -0.0469,0.11687 -0.0671,0.177659 -0.11328,0.292968 h 20.47851 l 1.25,-3.113281 z m 26.7207,0 -1.09179,2.71875 c -0.0588,0.146518 -0.10434,0.251192 -0.16211,0.394531 h 20.48828 l 1.25,-3.113281 z m 27.22852,0 -1.25,3.113281 h 20.48437 l 1.25,-3.113281 z m 26.71875,0 -1.25,3.113281 h 20.48633 l 1.25,-3.113281 z m 27.83789,0 -1.25,3.113281 h 21.09375 l 1.25,-3.113281 z m 27.8418,0 c -0.43937,1.099169 -0.82861,2.12068 -1.19727,3.113281 h 20.42578 l 1.25,-3.113281 z m 26.46093,0 -1.25,3.113281 h 20.36524 c 0.43202,-0.974252 0.87758,-2.014857 1.33593,-3.113281 z m 47.19336,0 c 1.41678,1.137285 2.2618,1.92174 2.48047,2.314453 0.10082,0.195703 0.15088,0.463462 0.15234,0.798828 h 19.51368 c 0.38969,-1.105464 0.69437,-2.1415 0.92382,-3.113281 z m -21.36719,1.097656 -0.81054,2.015625 h 18.15234 l 0.8086,-2.015625 z M 16.939453,93.466797 c -0.756684,2.700055 -1.218986,4.996109 -1.355469,6.845703 -0.28325,3.98871 1.147961,7.11413 4.294922,9.37891 3.146961,2.26477 7.848075,3.39843 14.101563,3.39843 6.016872,0 11.605232,-1.33545 16.767578,-4.00586 5.196149,-2.6704 9.098829,-5.7808 11.707031,-9.330074 1.184145,-1.590781 2.449353,-3.704937 3.78711,-6.287109 H 45.318359 c -0.862809,1.842645 -1.603342,3.190332 -2.1875,3.904297 -0.961846,1.216894 -2.237447,1.826172 -3.826171,1.826172 -1.656331,0 -2.47631,-0.609278 -2.460938,-1.826172 0.0095,-0.751432 0.358344,-2.095956 0.972656,-3.904297 z m 56.001953,0 -1.162109,2.890625 c -2.72807,6.794328 -3.011845,11.204268 -0.851563,13.232418 2.207659,1.99436 5.10442,2.99219 8.6875,2.99219 2.738014,0 5.324175,-0.59035 7.759766,-1.77344 2.482966,-1.21689 4.830577,-3.02579 7.044922,-5.42578 l -2.400391,5.98242 h 19.925779 l 7.18555,-17.898433 H 98.644531 c -1.30294,3.217868 -2.316178,5.244353 -3.027343,6.033203 -0.683998,0.77746 -1.668625,1.16602 -2.953126,1.16602 -1.352105,0 -2.06089,-0.50546 -2.126953,-1.519536 -0.02865,-0.900669 0.539111,-2.832493 1.638672,-5.679687 z m 53.238284,0 -7.1875,17.898433 h 21.09375 l 7.1875,-17.898433 z m 29.02929,0 c -0.75668,2.700055 -1.21898,4.996109 -1.35546,6.845703 -0.28326,3.98871 1.14796,7.11413 4.29492,9.37891 3.14696,2.26477 7.84807,3.39843 14.10156,3.39843 6.01687,0 11.60718,-1.33545 16.76953,-4.00586 5.19615,-2.6704 9.09687,-5.7808 11.70508,-9.330074 1.18414,-1.590781 2.44935,-3.704937 3.78711,-6.287109 h -20.92383 c -0.86281,1.842645 -1.60334,3.190332 -2.1875,3.904297 -0.96185,1.216894 -2.23745,1.826172 -3.82617,1.826172 -1.65633,0 -2.47631,-0.609278 -2.46094,-1.826172 0.009,-0.751432 0.35835,-2.095956 0.97266,-3.904297 z m 56.55664,0 c -0.75313,2.336747 -1.25812,4.30125 -1.47656,5.832031 -0.39643,2.839422 -0.14005,5.272622 0.76953,7.300782 0.95696,1.99436 2.80259,3.49764 5.53907,4.51172 2.75004,0.98027 6.39036,1.4707 10.91992,1.4707 4.05632,0 7.8701,-0.57532 11.4414,-1.72461 3.61869,-1.18309 6.91515,-2.99004 9.88672,-5.42383 2.98515,-2.46759 5.34512,-5.10453 7.08008,-7.910152 0.67145,-1.090351 1.40783,-2.49276 2.17969,-4.056641 h -20.12305 l -0.082,0.203125 c -1.16723,2.907029 -2.13016,4.798866 -2.88867,5.677734 -0.72471,0.878864 -1.69521,1.318364 -2.91211,1.318364 -1.18309,0 -1.7869,-0.4715 -1.8125,-1.417973 -0.0114,-0.928831 0.57393,-2.879809 1.71875,-5.78125 z m 53.0879,0 c -0.75316,2.33678 -1.26008,4.301234 -1.47852,5.832031 -0.39643,2.839422 -0.14006,5.272622 0.76953,7.300782 0.95696,1.99436 2.80454,3.49764 5.54102,4.51172 2.75004,0.98027 6.39036,1.4707 10.91992,1.4707 4.05632,0 7.8701,-0.57532 11.44141,-1.72461 3.61868,-1.18309 6.91319,-2.99004 9.88476,-5.42383 2.98515,-2.46759 5.34511,-5.10453 7.08008,-7.910152 0.6715,-1.090436 1.40971,-2.492602 2.18164,-4.056641 h -20.12305 l -0.082,0.203125 c -1.16723,2.907029 -2.13015,4.798866 -2.88867,5.677734 -0.72472,0.878864 -1.69522,1.318364 -2.91211,1.318364 -1.18309,0 -1.78885,-0.4715 -1.81445,-1.417973 -0.0114,-0.928831 0.57588,-2.879809 1.7207,-5.78125 z m 53.44336,0 -7.18555,17.898433 h 21.09179 l 7.1875,-17.898433 z m 46.49023,0 c -1.02449,3.271588 -1.56966,5.98088 -1.62891,8.113283 -0.093,3.34646 1.43792,6.1003 4.5918,8.26367 3.18767,2.16337 7.63695,3.24609 13.34961,3.24609 5.20559,0 10.14295,-0.92991 14.81055,-2.78906 4.68116,-1.89294 8.25369,-4.22623 10.71875,-6.99805 2.03277,-2.25482 4.01429,-5.545524 5.94726,-9.835933 h -20.24023 c -0.78676,1.73718 -1.66726,3.105647 -2.6543,4.056641 -1.12392,1.115487 -2.39474,1.673828 -3.81445,1.673828 -1.41972,0 -2.24114,-0.439491 -2.46289,-1.31836 -0.15395,-0.719794 0.1955,-2.218537 0.99609,-4.412109 z m 55.04101,0 c -1.93999,4.956766 -3.11115,8.304673 -3.41406,9.835933 -0.34751,1.79154 -0.0448,3.39865 0.90625,4.81836 0.96466,1.38591 2.36188,2.28187 4.19336,2.6875 1.84506,0.37183 5.10086,0.55664 9.76563,0.55664 h 8.26367 l 4.35742,-10.84961 c -3.34647,0 -5.15419,-0.25468 -5.42383,-0.761714 -0.21358,-0.459177 0.44285,-2.612148 1.88086,-6.287109 z m 30.29688,0 c -1.3243,3.416154 -2.34981,6.187464 -2.74805,7.605473 -0.53703,1.92675 -0.69199,3.78658 -0.46484,5.57812 0.26092,1.79154 1.18935,3.22691 2.7832,4.30859 1.59383,1.08169 3.92785,1.62305 7.00391,1.62305 2.7042,0 5.31241,-0.55834 7.82226,-1.67383 2.55724,-1.14929 4.99906,-2.85631 7.32813,-5.12109 l -2.59375,5.57812 h 20.83984 l 7.1875,-17.898433 h -20.52539 c -1.27733,3.026996 -2.18827,4.954131 -2.69726,5.679687 -0.67762,1.014076 -1.77577,1.519536 -3.29688,1.519536 -1.41971,0 -2.10246,-0.48848 -2.04687,-1.468754 0.0665,-0.72892 0.69476,-2.646588 1.875,-5.730469 z m 53.90039,0 -0.0195,0.05078 c -1.99516,4.968988 -3.11357,8.552833 -3.35352,10.750003 -0.20618,2.19717 0.51811,4.13994 2.17188,5.83008 1.66732,1.65632 4.09013,2.48437 7.26758,2.48437 2.36618,0 4.83374,-0.50741 7.40429,-1.52148 2.57056,-1.01408 5.24269,-2.53434 8.01758,-4.5625 l -1.95312,4.86718 h 20.48437 l 7.1875,-17.898434 h -20.50781 c -1.23647,2.956464 -2.23344,4.927459 -2.95899,5.78125 -0.81946,0.946474 -1.88677,1.417974 -3.20507,1.417974 -1.14931,0 -1.75792,-0.42252 -1.82422,-1.267583 -0.0528,-0.878869 0.47094,-2.685815 1.57031,-5.423829 l 0.20313,-0.507812 z m 54.55859,0 -7.1875,17.898433 h 21.09375 l 7.1875,-17.898433 z m 28.0879,0 c -0.75316,2.33678 -1.26008,4.301234 -1.47852,5.832031 -0.39643,2.839422 -0.14004,5.272622 0.76953,7.300782 0.95696,1.99436 2.80453,3.49764 5.54102,4.51172 2.75003,0.98027 6.39036,1.4707 10.91992,1.4707 4.05631,0 7.87009,-0.57532 11.4414,-1.72461 3.61868,-1.18309 6.9132,-2.99004 9.88477,-5.42383 2.98515,-2.46759 5.34511,-5.10453 7.08008,-7.910152 0.6715,-1.090436 1.40971,-2.492602 2.18164,-4.056641 h -20.125 l -0.082,0.203125 c -1.16724,2.907029 -2.12819,4.798866 -2.88672,5.677734 -0.72472,0.878864 -1.69718,1.318364 -2.91406,1.318364 -1.1831,0 -1.78689,-0.4715 -1.8125,-1.417973 -0.0114,-0.928831 0.57588,-2.879809 1.7207,-5.78125 z m 52.53515,0 c -1.57554,4.374484 -2.25819,7.745873 -2.02734,10.089843 0.27296,2.77182 1.92598,4.96927 4.95898,6.5918 3.06682,1.62252 7.20261,2.43359 12.40821,2.43359 4.69858,0 9.00226,-0.74315 12.9121,-2.23047 3.95721,-1.52112 7.20172,-3.66763 9.73438,-6.43945 2.23015,-2.45733 4.32744,-5.939418 6.29102,-10.445313 h -18.92774 c -0.17281,0.486598 -0.33787,0.962047 -0.5625,1.521484 -0.9365,2.332382 -1.84158,3.869622 -2.71484,4.613281 -0.85966,0.709858 -2.01525,1.064458 -3.46875,1.064458 -1.35212,0 -2.04899,-0.53941 -2.08789,-1.621098 -0.004,-0.920969 0.55334,-2.819337 1.60546,-5.578125 z"
         transform="matrix(0.26458333,0,0.10623591,0.26458333,-7.4705677,0)"
         id="path849" />
    </g>
    <g
       id="g847">
      <g
         aria-label=" "
         transform="scale(1.5940541,0.62733127)"
         style="font-style:normal;font-variant:normal;font-weight:bold;font-stretch:normal;font-size:1.93819594px;line-height:0%;font-family:Verdana;-inkscape-font-specification:'Verdana, Bold';text-align:center;letter-spacing:1.14036405px;word-spacing:0px;writing-mode:lr-tb;text-anchor:middle;fill:#000000;fill-opacity:1;stroke:none;stroke-width:0.14095971px;stroke-linecap:butt;stroke-linejoin:miter;stroke-opacity:1"
         id="text821" />
    </g>
    <image
       xlink:href="../../../../../../../../../var/www/images/Barre colorée.png"
       y="204.4684"
       x="-0.14817335"
       id="image981"
       style="stroke-width:0.44330251;image-rendering:optimizeSpeed"
       preserveAspectRatio="none"
       height="6.4936848"
       width="370.71298" />
  </g>
</svg>
